<svg width="914" height="562" viewBox="0 0 914 562" fill="none" xmlns="http://www.w3.org/2000/svg">
<path d="M249.5 290.5C267.167 290.5 276 298 276 313C276 325 272.667 333.333 266 338C259.333 342.667 248.833 345 234.5 345H224L222 371.5C221 386.833 217.667 397.167 212 402.5C206.667 407.833 197.833 410.5 185.5 410.5C167.833 410.5 159 399.667 159 378C159 374.333 159.167 371.5 159.5 369.5L162 345C113.667 345 77 344.833 52 344.5C44.6667 344.5 38.1667 341.167 32.5 334.5C26.8333 327.833 24 319.167 24 308.5C24 302.167 25.1667 295.5 27.5 288.5C42.1667 245.833 64.1667 197.333 93.5 143C99.8333 131.333 106.167 123.167 112.5 118.5C119.167 113.5 129.333 111 143 111C150.333 111 155.833 112.667 159.5 116C163.5 119.333 165.5 123.667 165.5 129C165.5 134.667 163.833 140.333 160.5 146C127.833 205.667 104.833 253.833 91.5 290.5H168.5C172.5 259.5 178 230 185 202C187.667 191.667 192 183.833 198 178.5C204 172.833 212.333 170 223 170C240 170 248.5 177.333 248.5 192C248.5 196.333 248.167 199.667 247.5 202C241.5 230.333 236.167 259.833 231.5 290.5H249.5ZM874.559 290.5C892.225 290.5 901.059 298 901.059 313C901.059 325 897.725 333.333 891.059 338C884.392 342.667 873.892 345 859.559 345H849.059L847.059 371.5C846.059 386.833 842.725 397.167 837.059 402.5C831.725 407.833 822.892 410.5 810.559 410.5C792.892 410.5 784.059 399.667 784.059 378C784.059 374.333 784.225 371.5 784.559 369.5L787.059 345C738.725 345 702.059 344.833 677.059 344.5C669.725 344.5 663.225 341.167 657.559 334.5C651.892 327.833 649.059 319.167 649.059 308.5C649.059 302.167 650.225 295.5 652.559 288.5C667.225 245.833 689.225 197.333 718.559 143C724.892 131.333 731.225 123.167 737.559 118.5C744.225 113.5 754.392 111 768.059 111C775.392 111 780.892 112.667 784.559 116C788.559 119.333 790.559 123.667 790.559 129C790.559 134.667 788.892 140.333 785.559 146C752.892 205.667 729.892 253.833 716.559 290.5H793.559C797.559 259.5 803.059 230 810.059 202C812.725 191.667 817.059 183.833 823.059 178.5C829.059 172.833 837.392 170 848.059 170C865.059 170 873.559 177.333 873.559 192C873.559 196.333 873.225 199.667 872.559 202C866.559 230.333 861.225 259.833 856.559 290.5H874.559Z" fill="#27B096"/>
<path d="M449.074 405.5C416.408 405.5 391.074 394.833 373.074 373.5C355.408 352.167 346.574 321.667 346.574 282C346.574 248.333 351.741 218.667 362.074 193C372.741 167 387.408 146.833 406.074 132.5C425.074 118.167 447.074 111 472.074 111C504.741 111 529.908 121.667 547.574 143C565.574 164.333 574.574 194.833 574.574 234.5C574.574 268.167 569.241 298 558.574 324C548.241 349.667 533.574 369.667 514.574 384C495.908 398.333 474.074 405.5 449.074 405.5ZM454.074 349.5C472.074 349.5 486.241 339.5 496.574 319.5C506.908 299.5 512.074 272.333 512.074 238C512.074 215 508.241 197.5 500.574 185.5C492.908 173.167 481.741 167 467.074 167C449.074 167 434.908 177.167 424.574 197.5C414.241 217.5 409.074 244.667 409.074 279C409.074 302 412.741 319.5 420.074 331.5C427.741 343.5 439.074 349.5 454.074 349.5Z" fill="white"/>
<rect x="306.5" y="104.5" width="301" height="301" rx="150.5" fill="white"/>
<path d="M423.109 159.223H400.327C389.408 159.223 380.556 168.074 380.556 178.994V201.776C380.556 212.695 389.408 221.547 400.327 221.547H423.109C434.029 221.547 442.88 212.695 442.88 201.776V178.994C442.88 168.074 434.029 159.223 423.109 159.223Z" fill="#27B096"/>
<path d="M513.672 159.223H490.89C479.971 159.223 471.119 168.074 471.119 178.994V201.776C471.119 212.695 479.971 221.547 490.89 221.547H513.672C524.592 221.547 533.443 212.695 533.443 201.776V178.994C533.443 168.074 524.592 159.223 513.672 159.223Z" fill="#27B096"/>
<path d="M423.109 241.677H400.327C389.408 241.677 380.556 250.529 380.556 261.448V284.23C380.556 295.149 389.408 304.001 400.327 304.001H423.109C434.029 304.001 442.88 295.149 442.88 284.23V261.448C442.88 250.529 434.029 241.677 423.109 241.677Z" fill="#27B096"/>
<path d="M513.672 241.677H490.89C479.971 241.677 471.119 250.529 471.119 261.448V284.23C471.119 295.149 479.971 304.001 490.89 304.001H513.672C524.592 304.001 533.443 295.149 533.443 284.23V261.448C533.443 250.529 524.592 241.677 513.672 241.677Z" fill="#27B096"/>
<path d="M384.79 350.777C446.738 337.028 471.119 336.562 533.444 350.777M400.327 159.223H423.109C434.029 159.223 442.88 168.074 442.88 178.994V201.776C442.88 212.695 434.029 221.547 423.109 221.547H400.327C389.408 221.547 380.556 212.695 380.556 201.776V178.994C380.556 168.074 389.408 159.223 400.327 159.223ZM490.89 159.223H513.672C524.592 159.223 533.443 168.074 533.443 178.994V201.776C533.443 212.695 524.592 221.547 513.672 221.547H490.89C479.971 221.547 471.119 212.695 471.119 201.776V178.994C471.119 168.074 479.971 159.223 490.89 159.223ZM400.327 241.677H423.109C434.029 241.677 442.88 250.529 442.88 261.448V284.23C442.88 295.149 434.029 304.001 423.109 304.001H400.327C389.408 304.001 380.556 295.149 380.556 284.23V261.448C380.556 250.529 389.408 241.677 400.327 241.677ZM490.89 241.677H513.672C524.592 241.677 533.443 250.529 533.443 261.448V284.23C533.443 295.149 524.592 304.001 513.672 304.001H490.89C479.971 304.001 471.119 295.149 471.119 284.23V261.448C471.119 250.529 479.971 241.677 490.89 241.677Z" stroke="#27B096" stroke-width="14.9101" stroke-miterlimit="10" stroke-linecap="round"/>
<rect x="306.5" y="104.5" width="301" height="301" rx="150.5" stroke="#27B096" stroke-width="15"/>
<path d="M361.285 501.074C353.277 501.074 347.027 498.796 342.535 494.238C338.108 489.681 335.895 483.301 335.895 475.098C335.895 470.671 336.741 466.406 338.434 462.305C340.191 458.203 342.861 454.98 346.441 452.637C350.022 450.293 354.319 449.121 359.332 449.121C364.15 449.121 368.349 450.228 371.93 452.441C375.315 454.655 377.952 457.65 379.84 461.426C381.728 465.137 382.672 469.271 382.672 473.828C382.672 475.065 382.249 476.139 381.402 477.051C380.556 477.897 379.449 478.32 378.082 478.32H345.074C345.66 482.943 347.385 486.491 350.25 488.965C353.18 491.374 357.118 492.578 362.066 492.578C364.671 492.578 366.982 492.35 369 491.895C371.083 491.374 373.167 490.592 375.25 489.551C375.706 489.29 376.292 489.16 377.008 489.16C378.049 489.16 378.961 489.551 379.742 490.332C380.589 491.048 381.012 491.96 381.012 493.066C381.012 494.564 380.133 495.801 378.375 496.777C375.641 498.275 373.036 499.349 370.562 500C368.089 500.716 364.996 501.074 361.285 501.074ZM372.418 470.898C373.264 470.898 373.655 470.475 373.59 469.629C373.329 467.025 372.548 464.844 371.246 463.086C369.814 461.003 368.023 459.44 365.875 458.398C363.792 457.357 361.611 456.836 359.332 456.836C357.249 456.836 355.068 457.324 352.789 458.301C350.51 459.408 348.688 461.068 347.32 463.281C346.018 465.43 345.27 467.969 345.074 470.898H372.418ZM405.188 500.586C403.951 500.586 402.876 500.163 401.965 499.316C401.118 498.405 400.695 497.331 400.695 496.094V454.199C400.695 452.962 401.118 451.888 401.965 450.977C402.876 450.065 403.951 449.609 405.188 449.609C406.424 449.609 407.499 450.065 408.41 450.977C409.322 451.888 409.777 452.962 409.777 454.199V458.105C414.27 452.116 419.348 449.121 425.012 449.121H425.5C426.737 449.121 427.779 449.577 428.625 450.488C429.471 451.335 429.895 452.376 429.895 453.613C429.895 454.85 429.439 455.892 428.527 456.738C427.681 457.52 426.607 457.91 425.305 457.91H424.816C421.757 457.91 418.924 458.659 416.32 460.156C413.781 461.589 411.6 463.672 409.777 466.406V496.094C409.777 497.331 409.322 498.405 408.41 499.316C407.499 500.163 406.424 500.586 405.188 500.586ZM449.09 500.586C447.853 500.586 446.779 500.163 445.867 499.316C445.021 498.405 444.598 497.331 444.598 496.094V454.199C444.598 452.962 445.021 451.888 445.867 450.977C446.779 450.065 447.853 449.609 449.09 449.609C450.327 449.609 451.401 450.065 452.312 450.977C453.224 451.888 453.68 452.962 453.68 454.199V458.105C458.172 452.116 463.25 449.121 468.914 449.121H469.402C470.639 449.121 471.681 449.577 472.527 450.488C473.374 451.335 473.797 452.376 473.797 453.613C473.797 454.85 473.341 455.892 472.43 456.738C471.583 457.52 470.509 457.91 469.207 457.91H468.719C465.659 457.91 462.827 458.659 460.223 460.156C457.684 461.589 455.503 463.672 453.68 466.406V496.094C453.68 497.331 453.224 498.405 452.312 499.316C451.401 500.163 450.327 500.586 449.09 500.586ZM509.105 501.074C504.158 501.074 499.763 500 495.922 497.852C492.146 495.638 489.216 492.546 487.133 488.574C485.049 484.603 484.008 480.111 484.008 475.098C484.008 470.02 485.049 465.495 487.133 461.523C489.216 457.552 492.146 454.492 495.922 452.344C499.763 450.195 504.158 449.121 509.105 449.121C514.053 449.121 518.415 450.195 522.191 452.344C526.033 454.557 528.995 457.65 531.078 461.621C533.161 465.527 534.203 470.02 534.203 475.098C534.203 480.176 533.161 484.668 531.078 488.574C528.93 492.611 525.935 495.703 522.094 497.852C518.318 500 513.988 501.074 509.105 501.074ZM493.09 475C493.09 479.167 493.871 482.52 495.434 485.059C496.866 487.598 498.754 489.518 501.098 490.82C503.507 492.122 506.176 492.773 509.105 492.773C511.775 492.773 514.346 492.155 516.82 490.918C519.359 489.616 521.378 487.63 522.875 484.961C524.372 482.227 525.121 478.906 525.121 475C525.121 470.898 524.34 467.578 522.777 465.039C521.345 462.565 519.424 460.677 517.016 459.375C514.672 458.073 512.035 457.422 509.105 457.422C506.436 457.422 503.865 458.008 501.391 459.18C498.852 460.482 496.833 462.467 495.336 465.137C493.839 467.806 493.09 471.094 493.09 475ZM557.402 500.586C556.165 500.586 555.091 500.163 554.18 499.316C553.333 498.405 552.91 497.331 552.91 496.094V454.199C552.91 452.962 553.333 451.888 554.18 450.977C555.091 450.065 556.165 449.609 557.402 449.609C558.639 449.609 559.714 450.065 560.625 450.977C561.536 451.888 561.992 452.962 561.992 454.199V458.105C566.484 452.116 571.562 449.121 577.227 449.121H577.715C578.952 449.121 579.993 449.577 580.84 450.488C581.686 451.335 582.109 452.376 582.109 453.613C582.109 454.85 581.654 455.892 580.742 456.738C579.896 457.52 578.822 457.91 577.52 457.91H577.031C573.971 457.91 571.139 458.659 568.535 460.156C565.996 461.589 563.815 463.672 561.992 466.406V496.094C561.992 497.331 561.536 498.405 560.625 499.316C559.714 500.163 558.639 500.586 557.402 500.586Z" fill="#27B096"/>
</svg>
