<svg width="218" height="218" viewBox="0 0 218 218" fill="none" xmlns="http://www.w3.org/2000/svg">
<g clip-path="url(#clip0_419_27732)">
<path d="M109 204.375C83.705 204.375 59.446 194.327 41.5597 176.44C23.6734 158.554 13.625 134.295 13.625 109C13.625 83.705 23.6734 59.446 41.5597 41.5597C59.446 23.6734 83.705 13.625 109 13.625C134.295 13.625 158.554 23.6734 176.44 41.5597C194.327 59.446 204.375 83.705 204.375 109C204.375 134.295 194.327 158.554 176.44 176.44C158.554 194.327 134.295 204.375 109 204.375ZM109 218C137.909 218 165.633 206.516 186.075 186.075C206.516 165.633 218 137.909 218 109C218 80.0914 206.516 52.3668 186.075 31.9254C165.633 11.4839 137.909 0 109 0C80.0914 0 52.3668 11.4839 31.9254 31.9254C11.4839 52.3668 0 80.0914 0 109C0 137.909 11.4839 165.633 31.9254 186.075C52.3668 206.516 80.0914 218 109 218Z" fill="#FF8C4B"/>
<path d="M149.466 67.7163C149.369 67.8103 149.278 67.9105 149.194 68.016L101.874 128.307L73.357 99.7759C71.4198 97.9709 68.8577 96.9882 66.2104 97.0349C63.563 97.0816 61.0371 98.1541 59.1649 100.026C57.2926 101.899 56.2202 104.424 56.1735 107.072C56.1268 109.719 57.1094 112.281 58.9145 114.218L94.9662 150.284C95.9374 151.253 97.094 152.017 98.3668 152.53C99.6396 153.043 101.003 153.294 102.375 153.268C103.747 153.243 105.1 152.942 106.353 152.382C107.606 151.822 108.733 151.016 109.668 150.011L164.059 82.0225C165.911 80.0787 166.923 77.484 166.877 74.7995C166.832 72.115 165.731 69.5563 163.814 67.6767C161.897 65.7971 159.317 64.7475 156.632 64.7549C153.947 64.7623 151.373 65.8261 149.466 67.7163Z" fill="#FF8C4B"/>
</g>
<defs>
<clipPath id="clip0_419_27732">
<rect width="218" height="218" fill="white"/>
</clipPath>
</defs>
</svg>
