<svg width="57" height="63" viewBox="0 0 57 63" fill="none" xmlns="http://www.w3.org/2000/svg">
<path d="M17.27 3H9.63C5.96835 3 3 5.96836 3 9.63V17.27C3 20.9317 5.96835 23.9 9.63 23.9H17.27C20.9317 23.9 23.9 20.9317 23.9 17.27V9.63C23.9 5.96836 20.9317 3 17.27 3Z" fill="#31B196"/>
<path d="M47.6396 3H39.9996C36.338 3 33.3696 5.96836 33.3696 9.63V17.27C33.3696 20.9317 36.338 23.9 39.9996 23.9H47.6396C51.3013 23.9 54.2696 20.9317 54.2696 17.27V9.63C54.2696 5.96836 51.3013 3 47.6396 3Z" fill="#27B096"/>
<path d="M17.27 30.6504H9.63C5.96835 30.6504 3 33.6187 3 37.2804V44.9204C3 48.582 5.96835 51.5504 9.63 51.5504H17.27C20.9317 51.5504 23.9 48.582 23.9 44.9204V37.2804C23.9 33.6187 20.9317 30.6504 17.27 30.6504Z" fill="#31B196"/>
<path d="M47.6396 30.6504H39.9996C36.338 30.6504 33.3696 33.6187 33.3696 37.2804V44.9204C33.3696 48.582 36.338 51.5504 39.9996 51.5504H47.6396C51.3013 51.5504 54.2696 48.582 54.2696 44.9204V37.2804C54.2696 33.6187 51.3013 30.6504 47.6396 30.6504Z" fill="#31B196"/>
<path d="M4.41992 60.3594H54.2699M9.63 3H17.27C20.9317 3 23.9 5.96836 23.9 9.63V17.27C23.9 20.9317 20.9317 23.9 17.27 23.9H9.63C5.96835 23.9 3 20.9317 3 17.27V9.63C3 5.96836 5.96835 3 9.63 3ZM39.9996 3H47.6396C51.3013 3 54.2696 5.96836 54.2696 9.63V17.27C54.2696 20.9317 51.3013 23.9 47.6396 23.9H39.9996C36.338 23.9 33.3696 20.9317 33.3696 17.27V9.63C33.3696 5.96836 36.338 3 39.9996 3ZM9.63 30.6504H17.27C20.9317 30.6504 23.9 33.6187 23.9 37.2804V44.9204C23.9 48.582 20.9317 51.5504 17.27 51.5504H9.63C5.96835 51.5504 3 48.582 3 44.9204V37.2804C3 33.6187 5.96835 30.6504 9.63 30.6504ZM39.9996 30.6504H47.6396C51.3013 30.6504 54.2696 33.6187 54.2696 37.2804V44.9204C54.2696 48.582 51.3013 51.5504 47.6396 51.5504H39.9996C36.338 51.5504 33.3696 48.582 33.3696 44.9204V37.2804C33.3696 33.6187 36.338 30.6504 39.9996 30.6504Z" stroke="#27B096" stroke-width="5" stroke-miterlimit="10" stroke-linecap="round"/>
</svg>
