<svg width="410" height="105" viewBox="0 0 410 105" fill="none" xmlns="http://www.w3.org/2000/svg">
<rect width="409" height="104.844" transform="translate(0.5 0.0778809)" fill="white"/>
<rect width="276" height="104.844" transform="translate(0.5 0.0778809)" fill="white"/>
<path d="M103.759 68.9293C103.759 68.373 104.317 67.7548 105.433 67.0748C107.162 66.0727 108.715 64.7947 110.032 63.2914C110.136 63.1658 110.214 63.0203 110.26 62.8637C110.307 62.7071 110.321 62.5428 110.302 62.3807C110.282 62.2185 110.231 62.0619 110.149 61.9204C110.068 61.7789 109.959 61.6554 109.828 61.5574L107.222 59.5915C106.187 58.794 105.669 57.9579 105.669 57.0832C105.741 56.1287 105.896 55.1824 106.133 54.2549C106.318 53.4049 106.677 51.3494 107.208 48.0884L107.255 47.8056C107.281 47.6318 107.269 47.4544 107.22 47.2857C107.171 47.117 107.085 46.961 106.97 46.8286C106.854 46.6962 106.711 46.5906 106.55 46.5191C106.39 46.4477 106.216 46.412 106.04 46.4146H105.34C104.278 46.4425 103.745 45.9093 103.745 44.8243C103.745 43.8136 104.371 43.285 105.599 43.2294H106.861C107.158 43.2291 107.446 43.1193 107.668 42.921C107.89 42.7227 108.032 42.4496 108.066 42.1537L108.622 37.0212C108.646 36.5529 108.843 36.1101 109.174 35.7786C109.488 35.4919 109.904 35.3418 110.329 35.3613C111.364 35.3613 111.882 35.9053 111.882 36.9933L111.312 41.7643C111.29 41.9356 111.306 42.1094 111.358 42.2742C111.409 42.4389 111.495 42.5907 111.611 42.7193C111.726 42.848 111.867 42.9506 112.025 43.0202C112.183 43.0897 112.354 43.1247 112.526 43.1228H114.766C116.834 43.0949 117.868 44.1165 117.868 46.1875C117.772 48.8936 117.507 51.5911 117.075 54.2642C116.757 56.5711 116.108 58.8199 115.146 60.9407C115.039 61.172 115.008 61.4316 115.058 61.6816C115.108 61.9317 115.236 62.1594 115.424 62.3316C117.504 64.2821 118.545 65.6452 118.545 66.421C118.545 67.5894 117.974 68.1736 116.834 68.1736C116.305 68.1736 115.416 67.39 114.168 65.8229L114.042 65.6745C113.929 65.5384 113.788 65.4288 113.627 65.3535C113.467 65.2783 113.292 65.2393 113.115 65.2393C112.938 65.2393 112.763 65.2783 112.603 65.3535C112.443 65.4288 112.301 65.5384 112.188 65.6745C111.207 66.895 110.092 68.0009 108.864 68.9711C107.318 70.1395 106.137 70.7237 105.321 70.7237C104.283 70.6958 103.762 70.0977 103.759 68.9293ZM114.423 50.8981L114.78 47.277C114.859 46.5862 114.437 46.2431 113.509 46.2431L111.655 46.2941C111.373 46.3005 111.103 46.4057 110.891 46.5914C110.679 46.777 110.539 47.0312 110.496 47.3095C110.186 49.2753 109.814 51.2845 109.378 53.3369C109.151 54.2954 108.977 55.266 108.859 56.244C108.859 56.8282 109.429 57.5144 110.57 58.3118L111.094 58.6827C111.247 58.7936 111.425 58.8669 111.612 58.8966C111.799 58.9264 111.99 58.9118 112.171 58.8541C112.351 58.7964 112.516 58.6971 112.651 58.5642C112.786 58.4314 112.888 58.2687 112.948 58.0893C113.697 55.752 114.193 53.3412 114.427 50.8981H114.423ZM121.377 69.5692C121.377 68.4502 122.081 67.8923 123.487 67.8954H125.759C126.844 67.8954 127.414 67.3112 127.47 66.1428V56.2857C127.47 56.127 127.438 55.9699 127.378 55.8233C127.317 55.6767 127.227 55.5436 127.115 55.4316C127.003 55.3196 126.869 55.2309 126.722 55.1706C126.576 55.1103 126.418 55.0796 126.26 55.0802H120.042C118.769 55.0802 118.13 54.5625 118.127 53.527C118.124 52.4915 118.762 51.9738 120.042 51.9738H126.273C126.594 51.9738 126.902 51.8463 127.129 51.6193C127.356 51.3924 127.484 51.0846 127.484 50.7637V47.7963C127.44 47.1141 127.637 46.4381 128.04 45.8861C128.439 45.4039 129.521 44.5539 131.286 43.336C133.117 42.0888 134.03 41.2821 134.03 40.9065C134.032 40.845 134.019 40.784 133.991 40.729C133.964 40.6739 133.923 40.6266 133.873 40.5912C133.77 40.5133 133.645 40.471 133.516 40.4707H120.636C119.365 40.4707 118.725 39.9792 118.725 38.9963C118.708 38.7784 118.741 38.5593 118.821 38.356C118.901 38.1527 119.027 37.9705 119.189 37.8233C119.616 37.5362 120.127 37.4022 120.64 37.4431H135.968C138.115 37.4431 139.191 38.0968 139.191 39.395C139.191 40.4861 136.962 42.6097 132.505 45.7655C131.36 46.614 130.766 47.4486 130.711 48.2739V50.7637C130.711 51.0846 130.838 51.3924 131.065 51.6193C131.292 51.8463 131.6 51.9738 131.921 51.9738H138.11C139.409 51.9738 140.062 52.4931 140.062 53.527C140.062 54.5609 139.409 55.0802 138.11 55.0802H131.916C131.757 55.0796 131.6 55.1103 131.453 55.1706C131.307 55.2309 131.173 55.3196 131.061 55.4316C130.948 55.5436 130.859 55.6767 130.798 55.8233C130.737 55.9699 130.706 56.127 130.706 56.2857V66.982C130.706 68.4935 130.335 69.5676 129.593 70.2044C128.689 70.9481 127.541 71.3312 126.371 71.28H123.501C122.098 71.28 121.394 70.7097 121.391 69.5692H121.377Z" fill="#27B096"/>
<path d="M180.78 68.1736C180.78 69.1566 180.172 69.648 178.948 69.648H146.493C145.297 69.648 144.699 69.1566 144.699 68.1736C144.699 67.1907 145.297 66.7039 146.493 66.7039H159.61C159.931 66.7039 160.238 66.5764 160.465 66.3494C160.692 66.1225 160.82 65.8147 160.82 65.4938V62.8973C160.82 62.5764 160.692 62.2686 160.465 62.0417C160.238 61.8147 159.931 61.6872 159.61 61.6872H148.76C147.592 61.6872 147.008 61.1958 147.008 60.2128C146.993 60.0138 147.023 59.814 147.095 59.628C147.167 59.4419 147.28 59.2743 147.425 59.1372C147.815 58.8668 148.287 58.7405 148.76 58.7802H159.61C159.931 58.7802 160.238 58.6527 160.465 58.4257C160.692 58.1988 160.82 57.891 160.82 57.57V56.0493C160.82 55.7283 160.692 55.4205 160.465 55.1936C160.238 54.9667 159.931 54.8392 159.61 54.8392H151.208C148.55 54.8392 147.303 53.5255 147.467 50.8982V40.9066C147.467 39.5156 147.768 38.5188 148.394 37.8836C149.02 37.2484 149.984 36.9563 151.338 36.9563H174.228C175.619 36.9563 176.616 37.2855 177.251 37.9346C177.887 38.5837 178.179 39.5713 178.091 40.8973V50.8889C178.091 52.2427 177.794 53.2396 177.214 53.8748C176.635 54.51 175.684 54.8299 174.386 54.8299H165.155C164.834 54.8299 164.526 54.9574 164.299 55.1843C164.072 55.4113 163.945 55.7191 163.945 56.04V57.57C163.945 57.891 164.072 58.1988 164.299 58.4257C164.526 58.6527 164.834 58.7802 165.155 58.7802H176.723C177.885 58.7802 178.468 59.2716 178.471 60.2545C178.485 60.4536 178.456 60.6534 178.383 60.8394C178.311 61.0255 178.199 61.1931 178.054 61.3302C177.665 61.5999 177.194 61.7261 176.723 61.6872H165.155C164.834 61.6872 164.526 61.8147 164.299 62.0417C164.072 62.2686 163.945 62.5764 163.945 62.8973V65.4938C163.945 65.8147 164.072 66.1225 164.299 66.3494C164.526 66.5764 164.834 66.7039 165.155 66.7039H178.948C180.172 66.7039 180.78 67.1907 180.78 68.1736ZM151.737 44.4117H159.619C159.779 44.413 159.938 44.3824 160.086 44.3219C160.234 44.2613 160.369 44.172 160.482 44.059C160.596 43.946 160.686 43.8116 160.747 43.6637C160.808 43.5157 160.839 43.3571 160.838 43.197V41.0828C160.838 40.9238 160.807 40.7665 160.746 40.6197C160.685 40.4728 160.596 40.3394 160.484 40.2271C160.371 40.1147 160.238 40.0256 160.091 39.9648C159.944 39.9039 159.787 39.8726 159.628 39.8726H153.503C152.718 39.8739 151.966 40.1865 151.411 40.742C150.857 41.2975 150.545 42.0504 150.545 42.8353V43.197C150.543 43.5159 150.667 43.8228 150.89 44.0505C151.114 44.2782 151.418 44.4081 151.737 44.4117ZM160.838 50.7637V48.5243C160.838 48.3656 160.807 48.2085 160.746 48.0619C160.685 47.9153 160.596 47.7822 160.484 47.6702C160.371 47.5582 160.238 47.4695 160.091 47.4092C159.944 47.3489 159.787 47.3182 159.628 47.3188H151.746C151.588 47.3182 151.431 47.349 151.284 47.4093C151.138 47.4697 151.004 47.5585 150.892 47.6705C150.78 47.7826 150.692 47.9157 150.631 48.0622C150.571 48.2088 150.54 48.3658 150.541 48.5243V50.1841C150.541 51.3757 151.12 51.9738 152.289 51.9738H159.637C159.957 51.9714 160.262 51.8428 160.487 51.6161C160.712 51.3894 160.838 51.083 160.838 50.7637ZM165.155 44.4117H173.76C173.919 44.4117 174.077 44.3803 174.224 44.3192C174.371 44.2581 174.505 44.1685 174.617 44.0557C174.73 43.9428 174.819 43.8089 174.879 43.6615C174.94 43.5141 174.971 43.3563 174.97 43.197V42.8307C174.97 42.0449 174.658 41.2914 174.103 40.7358C173.547 40.1801 172.793 39.868 172.008 39.868H165.155C164.834 39.868 164.526 39.9955 164.299 40.2224C164.072 40.4494 163.945 40.7572 163.945 41.0781V43.197C163.944 43.3563 163.975 43.5141 164.036 43.6615C164.096 43.8089 164.185 43.9428 164.298 44.0557C164.41 44.1685 164.544 44.2581 164.691 44.3192C164.838 44.3803 164.996 44.4117 165.155 44.4117ZM163.945 50.7637C163.945 51.0846 164.072 51.3924 164.299 51.6194C164.526 51.8463 164.834 51.9738 165.155 51.9738H173.218C174.386 51.9738 174.97 51.3773 174.97 50.1841V48.5243C174.97 48.3656 174.939 48.2085 174.878 48.0619C174.817 47.9153 174.728 47.7822 174.616 47.6702C174.503 47.5582 174.37 47.4695 174.223 47.4092C174.076 47.3489 173.919 47.3182 173.76 47.3188H165.155C164.996 47.3182 164.839 47.3489 164.692 47.4092C164.545 47.4695 164.412 47.5582 164.299 47.6702C164.187 47.7822 164.098 47.9153 164.037 48.0619C163.976 48.2085 163.945 48.3656 163.945 48.5243V50.7637Z" fill="#27B096"/>
<path d="M186.038 45.6869V42.9792C186.038 41.5172 186.369 40.4693 187.03 39.8357C187.8 39.117 188.885 38.7879 190.276 38.8389H200.193C200.513 38.8389 200.819 38.7118 201.045 38.4858C201.271 38.2597 201.398 37.9531 201.398 37.6334V36.9286C201.398 35.7881 202.009 35.2178 203.23 35.2178C204.451 35.2178 205.061 35.7881 205.061 36.9286V37.6334C205.061 37.9543 205.189 38.2621 205.416 38.4891C205.643 38.716 205.95 38.8435 206.271 38.8435H216.727C218.13 38.8435 219.204 39.1758 219.949 39.8403C220.614 40.4245 220.946 41.4322 220.946 42.8633V45.6916C220.946 47.0825 220.371 47.7594 219.23 47.7594C218.09 47.7594 217.52 47.0686 217.52 45.6916V43.2945C217.52 42.2374 217.005 41.7181 215.966 41.7459H190.971C189.936 41.7459 189.432 42.2621 189.46 43.2945V45.6869C189.46 47.0624 188.889 47.7517 187.749 47.7548C186.608 47.7579 186.038 47.0686 186.038 45.6869ZM221.502 67.061C221.492 67.2654 221.452 67.467 221.382 67.6591C221.293 68.0057 221.09 68.3125 220.807 68.5308C220.526 68.7439 220.181 68.8565 219.828 68.8507C219.51 68.8429 219.195 68.7753 218.901 68.6513C217.198 67.9349 215.603 66.9845 214.163 65.8277C212.969 64.8961 211.869 63.8494 210.88 62.7028L210.852 62.6703C210.69 62.4788 210.473 62.3422 210.23 62.2791C209.988 62.216 209.731 62.2296 209.497 62.318C209.262 62.4064 209.06 62.5652 208.92 62.7727C208.779 62.9803 208.706 63.2263 208.71 63.4771V63.5559C208.71 66.4212 208.152 68.4922 207.036 69.7687C206.109 70.8537 204.199 71.3977 201.306 71.4008C200.935 71.4008 200.272 71.373 199.317 71.3173C198.204 71.2385 197.643 70.7331 197.643 69.8058C197.617 69.5569 197.649 69.3054 197.736 69.0707C197.823 68.836 197.962 68.6244 198.144 68.452C198.61 68.1549 199.171 68.0424 199.715 68.1367C200.031 68.1599 200.457 68.1738 200.986 68.1738C203.004 68.1738 204.265 67.8029 204.769 67.061C205.273 66.3192 205.513 65.0318 205.488 63.1989V63.1061C205.485 62.8789 205.419 62.657 205.296 62.4658C205.173 62.2747 204.999 62.122 204.793 62.0252C204.587 61.9285 204.359 61.8916 204.133 61.9187C203.908 61.9459 203.694 62.036 203.517 62.1788C200.997 64.2134 198.183 65.8548 195.172 67.0471C193.596 67.699 191.988 68.27 190.354 68.758C189.401 69.0762 188.412 69.277 187.41 69.3561C186.483 69.3561 186.019 68.9295 186.019 68.0811C185.993 67.7337 186.092 67.3884 186.298 67.1074C186.59 66.8218 186.965 66.6339 187.369 66.5696C190.661 65.7517 193.847 64.5552 196.864 63.0041C199.457 61.6838 201.881 60.0555 204.083 58.1544C204.269 57.9907 204.399 57.7738 204.457 57.5333C204.515 57.2927 204.498 57.0401 204.408 56.8098L204.315 56.578C204.24 56.4146 204.13 56.27 203.993 56.1547C203.855 56.0395 203.693 55.9565 203.519 55.9121C203.346 55.8676 203.164 55.8627 202.988 55.8977C202.812 55.9327 202.646 56.0067 202.502 56.1143C201.6 56.7732 200.66 57.3785 199.688 57.9272C198.257 58.76 196.761 59.4734 195.213 60.06C193.653 60.6857 192.057 61.2168 190.433 61.6503C189.5 61.9269 188.539 62.101 187.568 62.1696C186.719 62.1696 186.298 61.7059 186.298 60.8157C186.288 60.6242 186.328 60.4334 186.415 60.2625C186.502 60.0916 186.633 59.9466 186.794 59.8421C187.41 59.5081 188.075 59.2719 188.764 59.142C191.358 58.4867 193.883 57.5879 196.308 56.4574C197.951 55.6917 199.524 54.7842 201.009 53.7451C201.155 53.6429 201.276 53.5099 201.364 53.3554C201.452 53.201 201.504 53.0289 201.518 52.8517C201.532 52.6745 201.506 52.4964 201.443 52.3302C201.38 52.164 201.281 52.0139 201.153 51.8905L201.028 51.7653C200.842 51.5816 200.603 51.4628 200.344 51.4269C200.086 51.3909 199.823 51.4397 199.595 51.566C197.493 52.6828 195.309 53.6391 193.062 54.4267C190.861 55.2241 189.282 55.6229 188.324 55.6229C187.365 55.6229 186.888 55.1453 186.891 54.1902C186.882 54.0312 186.907 53.8722 186.966 53.7241C187.024 53.576 187.114 53.4424 187.229 53.3325C187.529 53.0979 187.875 52.9289 188.245 52.8364C190.504 52.2758 192.725 51.5711 194.894 50.7268C195.422 50.5197 195.951 50.2971 196.479 50.0591C196.734 49.9475 196.942 49.7516 197.069 49.5046C197.196 49.2575 197.234 48.9742 197.177 48.7023C197.12 48.4304 196.971 48.1864 196.755 48.0113C196.54 47.8362 196.27 47.7408 195.992 47.7409H192.186C191.095 47.7409 190.551 47.2633 190.554 46.3082C190.557 45.3531 191.101 44.8755 192.186 44.8755H214.714C215.833 44.8755 216.391 45.3531 216.388 46.3082C216.385 47.2633 215.827 47.7409 214.714 47.7409H205.896C205.636 47.7405 205.384 47.8252 205.177 47.982C204.797 48.2602 204.38 48.5615 203.93 48.8768C203.782 48.9756 203.657 49.1061 203.565 49.2589C203.473 49.4116 203.416 49.5829 203.399 49.7602C203.381 49.9376 203.403 50.1167 203.463 50.2847C203.522 50.4526 203.619 50.6052 203.745 50.7314C204.89 51.8786 205.875 53.1745 206.675 54.5843C206.754 54.7231 206.86 54.8447 206.987 54.9422C207.113 55.0396 207.258 55.1109 207.413 55.1519C207.567 55.1929 207.728 55.2027 207.886 55.1809C208.045 55.1591 208.197 55.106 208.335 55.0248C210.644 53.6037 212.836 52.0006 214.891 50.2307C215.252 49.8696 215.734 49.6563 216.244 49.6326C216.462 49.6371 216.676 49.6854 216.875 49.7746C217.073 49.8638 217.251 49.9921 217.399 50.1518C217.525 50.2708 217.625 50.4147 217.693 50.5743C217.761 50.7338 217.795 50.9057 217.793 51.0791C217.77 51.3703 217.683 51.6529 217.539 51.9068C217.395 52.1608 217.197 52.38 216.959 52.5489C215.058 54.1298 212.974 55.4749 210.75 56.5548C210.589 56.632 210.446 56.7445 210.334 56.8841C210.221 57.0236 210.142 57.1867 210.101 57.3612C210.06 57.5356 210.059 57.7171 210.097 57.8921C210.136 58.0671 210.213 58.2312 210.324 58.3723C212.633 61.2655 215.878 63.61 220.06 65.4058C221.022 65.82 221.502 66.3718 221.502 67.061Z" fill="#27B096"/>
<path d="M235.973 51.6818C235.856 51.8715 235.793 52.0896 235.792 52.3124V69.4071C235.838 69.9419 235.697 70.4761 235.393 70.9185C235.236 71.0839 235.043 71.2115 234.83 71.2918C234.616 71.3721 234.387 71.403 234.16 71.3822C233.938 71.4007 233.715 71.3686 233.508 71.2883C233.301 71.2079 233.115 71.0815 232.963 70.9185C232.66 70.4761 232.519 69.9419 232.565 69.4071V59.9394C232.564 59.6955 232.49 59.4575 232.351 59.2566C232.213 59.0557 232.017 58.9012 231.79 58.8135C231.562 58.7258 231.314 58.7089 231.076 58.765C230.839 58.8211 230.624 58.9477 230.46 59.128C229.143 60.5699 228.211 61.2886 227.678 61.2886C227.461 61.3056 227.242 61.2772 227.036 61.2054C226.83 61.1336 226.641 61.0198 226.482 60.8713C226.188 60.5073 226.045 60.0441 226.083 59.5777C226.086 59.3296 226.162 59.0877 226.301 58.8823C226.506 58.5869 226.74 58.3134 227.001 58.0663C229.079 56.0609 230.944 53.8451 232.565 51.4546C233.563 49.9092 234.378 48.5599 235.008 47.407L235.059 47.305L235.986 45.1491C236.067 44.9655 236.101 44.7646 236.085 44.5646C236.069 44.3646 236.003 44.1719 235.893 44.0038C235.784 43.8357 235.634 43.6977 235.458 43.6021C235.281 43.5066 235.084 43.4566 234.883 43.4567H228.392C227.094 43.4567 226.44 42.9235 226.44 41.8618C226.44 40.8 227.094 40.2715 228.392 40.2715H236.96C237.226 40.2715 237.485 40.1838 237.696 40.0221C237.907 39.8603 238.059 39.6335 238.129 39.3766L238.815 36.8498C239.105 35.7092 239.703 35.1389 240.609 35.1389C241.75 35.1389 242.32 35.6165 242.32 36.5716C242.32 37.0229 242.002 38.1233 241.365 39.8728L241.244 40.2715H260.189C261.52 40.2715 262.183 40.8047 262.183 41.8618C262.183 42.9189 261.52 43.4567 260.189 43.4567H240.878C240.633 43.4536 240.392 43.5258 240.189 43.6633C239.986 43.8009 239.83 43.9974 239.742 44.2264C238.705 46.8167 237.444 49.3113 235.973 51.6818ZM262.4 68.5725C262.4 69.608 261.764 70.1257 260.49 70.1257H239.278C238.061 70.1257 237.45 69.608 237.447 68.5725C237.444 67.537 238.054 67.0193 239.278 67.0193H247.503C247.824 67.0193 248.132 66.8918 248.359 66.6648C248.586 66.4379 248.714 66.1301 248.714 65.8092V58.1173C248.714 57.9586 248.682 57.8014 248.621 57.6549C248.561 57.5083 248.471 57.3752 248.359 57.2632C248.246 57.1512 248.113 57.0625 247.966 57.0022C247.819 56.9419 247.662 56.9112 247.503 56.9118H241.286C240.012 56.9118 239.376 56.394 239.376 55.3586C239.376 54.3478 240.011 53.8471 241.286 53.8471H247.517C247.838 53.8471 248.146 53.7196 248.373 53.4926C248.6 53.2657 248.727 52.9579 248.727 52.6369V47.5368C248.727 46.2355 249.272 45.5849 250.36 45.5849C251.448 45.5849 251.992 46.2355 251.992 47.5368V52.6369C251.99 52.7959 252.019 52.9536 252.078 53.1011C252.137 53.2486 252.225 53.3831 252.336 53.4967C252.447 53.6104 252.58 53.7011 252.726 53.7636C252.872 53.8261 253.029 53.8592 253.188 53.861H258.942C260.244 53.861 260.894 54.3617 260.894 55.3725C260.894 56.3832 260.244 56.9257 258.942 56.9257H253.188C253.029 56.9251 252.872 56.9558 252.725 57.0161C252.578 57.0764 252.445 57.1651 252.332 57.2771C252.22 57.3891 252.131 57.5222 252.07 57.6688C252.009 57.8153 251.978 57.9725 251.978 58.1312V65.8231C251.978 66.144 252.105 66.4518 252.332 66.6788C252.559 66.9057 252.867 67.0332 253.188 67.0332H260.495C261.781 67.0239 262.422 67.537 262.419 68.5725H262.4Z" fill="#27B096"/>
<path d="M76.3574 35.3521L94.3423 53.3323" stroke="#27B096" stroke-width="2.31824" stroke-miterlimit="10" stroke-linecap="round"/>
<path d="M14.5764 53.3323L53.2678 14.641C53.4237 14.4844 53.6091 14.3602 53.8131 14.2754C54.0172 14.1906 54.236 14.147 54.457 14.147C54.678 14.147 54.8969 14.1906 55.1009 14.2754C55.305 14.3602 55.4904 14.4844 55.6463 14.641L68.851 27.841" stroke="#27B096" stroke-width="2.31824" stroke-miterlimit="10" stroke-linecap="round"/>
<path d="M18.3643 57.8205V84.2066C18.3643 84.653 18.5416 85.0811 18.8572 85.3967C19.1728 85.7123 19.6009 85.8896 20.0473 85.8896H88.4816C88.9276 85.8884 89.355 85.7107 89.6704 85.3953C89.9858 85.08 90.1635 84.6526 90.1647 84.2066V59.9532C90.163 59.5075 89.9846 59.0806 89.6686 58.7663L54.1022 23.1953" stroke="#27B096" stroke-width="2.31824" stroke-miterlimit="10" stroke-linecap="round"/>
<path d="M68.8508 27.841V17.446C68.8502 17.2248 68.8933 17.0057 68.9776 16.8012C69.062 16.5967 69.1859 16.4109 69.3423 16.2545C71.3684 13.417 76.2089 14.1356 76.2089 19.1013V35.0507" stroke="#27B096" stroke-width="2.31824" stroke-miterlimit="10" stroke-linecap="round"/>
<path d="M34.7681 54.1716H31.2258C29.5281 54.1716 28.1519 55.5479 28.1519 57.2456V60.7879C28.1519 62.4856 29.5281 63.8619 31.2258 63.8619H34.7681C36.4658 63.8619 37.8421 62.4856 37.8421 60.7879V57.2456C37.8421 55.5479 36.4658 54.1716 34.7681 54.1716Z" fill="#27B096"/>
<path d="M48.8492 54.1716H45.3069C43.6092 54.1716 42.2329 55.5479 42.2329 57.2456V60.7879C42.2329 62.4856 43.6092 63.8619 45.3069 63.8619H48.8492C50.5469 63.8619 51.9231 62.4856 51.9231 60.7879V57.2456C51.9231 55.5479 50.5469 54.1716 48.8492 54.1716Z" fill="#27B096"/>
<path d="M34.7681 66.9915H31.2258C29.5281 66.9915 28.1519 68.3677 28.1519 70.0654V73.6077C28.1519 75.3054 29.5281 76.6817 31.2258 76.6817H34.7681C36.4658 76.6817 37.8421 75.3054 37.8421 73.6077V70.0654C37.8421 68.3677 36.4658 66.9915 34.7681 66.9915Z" fill="#27B096"/>
<path d="M48.8492 66.9915H45.3069C43.6092 66.9915 42.2329 68.3677 42.2329 70.0654V73.6077C42.2329 75.3054 43.6092 76.6817 45.3069 76.6817H48.8492C50.5469 76.6817 51.9231 75.3054 51.9231 73.6077V70.0654C51.9231 68.3677 50.5469 66.9915 48.8492 66.9915Z" fill="#27B096"/>
<path d="M28.8103 80.7664H51.9231" stroke="#27B096" stroke-width="2.31824" stroke-miterlimit="10" stroke-linecap="round"/>
<path d="M290.406 66.4062C289.51 66.4062 288.854 66.2083 288.438 65.8125C288.042 65.4375 287.865 64.8125 287.906 63.9375V53.4062C287.906 52.5104 288.104 51.8542 288.5 51.4375C288.896 51.0208 289.531 50.8333 290.406 50.875H304.5C305.312 50.875 305.917 51.0729 306.312 51.4688C306.729 51.8646 306.948 52.4688 306.969 53.2812V55.25C306.969 56.9792 306.146 57.8125 304.5 57.75H290.406V59.4062H306.312C307.208 59.4062 307.854 59.6042 308.25 60C308.646 60.3958 308.823 61.0312 308.781 61.9062V63.9688C308.781 64.8438 308.583 65.4792 308.188 65.875C307.792 66.2708 307.167 66.4479 306.312 66.4062H290.406ZM283.469 44.8125C283.469 44.5 283.75 44.0938 284.312 43.5938C285.646 42.4479 286.719 41.2083 287.531 39.875C288.073 38.9792 288.635 38.5312 289.219 38.5312C290.115 38.5312 290.562 38.8438 290.562 39.4688C290.562 39.6979 290.292 40.1771 289.75 40.9062H296.125C296.938 40.9062 297.344 41.2604 297.344 41.9688C297.344 42.6771 296.938 43.0312 296.125 43.0312H292.969C293.385 44.0938 293.594 44.7396 293.594 44.9688C293.594 45.6354 293.188 45.9688 292.375 45.9688C291.708 45.9688 291.271 45.5729 291.062 44.7812L290.562 43.0312H288.188C286.542 44.9896 285.333 45.9688 284.562 45.9688C283.833 45.9688 283.469 45.5833 283.469 44.8125ZM283.906 49.9062C283.906 48.8646 284.135 48.1146 284.594 47.6562C285.073 47.1771 285.833 46.9688 286.875 47.0312H295.844V46.1875C295.844 45.2917 296.292 44.8438 297.188 44.8438C298.104 44.8438 298.562 45.2917 298.562 46.1875V47.0312H308.094C309.156 47.0312 309.927 47.2604 310.406 47.7188C310.906 48.1771 311.115 48.9062 311.031 49.9062V52.7188C311.031 53.6146 310.604 54.0625 309.75 54.0625C308.917 54.0625 308.5 53.6146 308.5 52.7188V50.1875C308.5 49.5208 308.125 49.1771 307.375 49.1562H287.594C287.219 49.1562 286.927 49.25 286.719 49.4375C286.531 49.625 286.448 49.875 286.469 50.1875V52.7188C286.469 53.6146 286.042 54.0625 285.188 54.0625C284.333 54.0625 283.906 53.6146 283.906 52.7188V49.9062ZM290.406 63.3125C290.406 63.9375 290.719 64.2604 291.344 64.2812H305.344C305.656 64.2812 305.896 64.1979 306.062 64.0312C306.229 63.8646 306.312 63.6354 306.312 63.3438V62.4062C306.312 61.8229 305.99 61.5104 305.344 61.4688H290.406V63.3125ZM303.531 55.6875C304.135 55.6875 304.458 55.3958 304.5 54.8125V53.7812C304.5 53.2604 304.177 52.9792 303.531 52.9375H291.344C290.76 52.9375 290.448 53.2604 290.406 53.9062V55.6875H303.531ZM296.938 43.75C296.938 43.4792 297.156 43.1458 297.594 42.75C298.385 42.0625 299.062 41.1771 299.625 40.0938C299.917 39.5521 300.188 39.1562 300.438 38.9062C300.688 38.6562 300.938 38.5312 301.188 38.5312C302 38.5312 302.406 38.8646 302.406 39.5312C302.406 39.7812 302.188 40.2396 301.75 40.9062H310.344C311.156 40.9062 311.562 41.2604 311.562 41.9688C311.562 42.6771 311.156 43.0312 310.344 43.0312H305.781C306.198 44.0312 306.406 44.6771 306.406 44.9688C306.406 45.6354 305.99 45.9688 305.156 45.9688C304.49 45.9688 304.021 45.5104 303.75 44.5938C303.667 44.2396 303.573 43.9583 303.469 43.75C303.365 43.4167 303.302 43.1771 303.281 43.0312H300.344C299.469 44.2188 298.729 44.8125 298.125 44.8125C297.333 44.8125 296.938 44.4583 296.938 43.75ZM323.906 66.0625C322.969 66.0625 322.5 65.6771 322.5 64.9062C322.5 64.1354 322.969 63.75 323.906 63.75H332.969V59.5625H327.25C326.312 59.5625 325.844 59.1771 325.844 58.4062C325.844 57.6354 326.312 57.25 327.25 57.25H332.969V53.9062H329.344C327.26 54.0729 326.302 53.1042 326.469 51V42.7188C326.302 40.6146 327.26 39.6458 329.344 39.8125H339.344C341.448 39.6458 342.417 40.6146 342.25 42.7188V51C342.417 53.0833 341.448 54.0521 339.344 53.9062H335.531V57.25H341.312C342.229 57.25 342.688 57.6354 342.688 58.4062C342.688 59.1771 342.229 59.5625 341.312 59.5625H335.531V63.75H342.344C343.302 63.75 343.781 64.1354 343.781 64.9062C343.781 65.6771 343.302 66.0625 342.344 66.0625H323.906ZM315.219 62.3125C315.219 61.6042 315.74 61.1146 316.781 60.8438L319.375 60.1562V51.7812H317.156C316.177 51.7812 315.688 51.3958 315.688 50.625C315.688 49.8333 316.177 49.4375 317.156 49.4375H319.375V42.6875H316.75C315.792 42.6875 315.312 42.3021 315.312 41.5312C315.312 40.7188 315.792 40.3125 316.75 40.3125H324.188C325.146 40.3125 325.625 40.7188 325.625 41.5312C325.625 42.3021 325.146 42.6875 324.188 42.6875H321.906V49.4375H323.781C324.76 49.4375 325.25 49.8333 325.25 50.625C325.25 51.3958 324.76 51.7812 323.781 51.7812H321.906V59.5L324.594 58.75C325.323 58.75 325.688 59.1458 325.688 59.9375C325.688 60.4375 325.5 60.7917 325.125 61L320.906 62.4375C319.719 62.8333 318.729 63.1354 317.938 63.3438C317.146 63.5521 316.667 63.6562 316.5 63.6562C315.646 63.6562 315.219 63.2083 315.219 62.3125ZM328.938 50.4688C328.938 51.2812 329.344 51.6771 330.156 51.6562H333V47.8438H328.938V50.4688ZM333 45.5938V42.0625H330.156C329.323 42.0625 328.917 42.4688 328.938 43.2812V45.5938H333ZM338.562 51.6562C339.375 51.6562 339.771 51.2604 339.75 50.4688V47.8438H335.531V51.6562H338.562ZM339.75 45.5938V43.2812C339.75 42.4479 339.354 42.0417 338.562 42.0625H335.531V45.5938H339.75ZM357.219 66.8125C356.427 66.8125 356.031 66.4167 356.031 65.625C356.031 64.9583 356.562 64.5312 357.625 64.3438C360.271 63.8646 362.49 63.0625 364.281 61.9375C362.823 60.6042 361.688 59.0208 360.875 57.1875C360.146 58.4167 359.198 59.5729 358.031 60.6562C356.948 61.6979 356.167 62.2188 355.688 62.2188C354.958 62.2188 354.594 61.8229 354.594 61.0312C354.594 60.6562 355.052 60.0938 355.969 59.3438C358.198 57.4896 359.823 55.1667 360.844 52.375L360.812 52.3438C360.354 52.3854 359.625 52.4271 358.625 52.4688C358.438 52.4688 358.135 52.4896 357.719 52.5312C357.135 52.5729 356.708 52.5938 356.438 52.5938C355.562 52.5938 355.125 52.2083 355.125 51.4375C355.125 50.625 355.677 50.2188 356.781 50.2188L359.031 50.1875L361.281 50.1562L362.75 48.4688C361 47.0729 359.333 45.8854 357.75 44.9062C357.083 44.4896 356.75 44.0938 356.75 43.7188C356.75 42.9688 357.146 42.5938 357.938 42.5938C358.312 42.5938 359.01 42.9479 360.031 43.6562H360.094C360.906 42.4688 361.583 41.3021 362.125 40.1562C362.604 39.0938 363.177 38.5625 363.844 38.5625C364.302 38.5625 364.625 38.6562 364.812 38.8438C365.021 39.0312 365.125 39.3229 365.125 39.7188C365.125 40.5729 364.021 42.2812 361.812 44.8438L364.312 46.6562C364.542 46.3646 364.75 46.1042 364.938 45.875C365.125 45.6458 365.281 45.4479 365.406 45.2812C366.74 43.5938 367.479 42.6458 367.625 42.4375C368 41.8958 368.323 41.5 368.594 41.25C368.865 41 369.115 40.875 369.344 40.875C370.24 40.875 370.688 41.2812 370.688 42.0938C370.688 42.5938 369.49 44.1458 367.094 46.75L364.188 50.0625C364.938 50.0417 366.094 49.9896 367.656 49.9062C369.219 49.8229 370.375 49.7708 371.125 49.75L370.344 48.7188C370.094 48.4062 369.885 48.1354 369.719 47.9062C369.573 47.6771 369.5 47.5 369.5 47.375C369.5 46.7292 369.844 46.4062 370.531 46.4062C371.01 46.4062 371.948 47.2396 373.344 48.9062C374.719 50.5521 375.406 51.6042 375.406 52.0625C375.406 52.8333 375.01 53.2188 374.219 53.2188C374.031 53.2188 373.844 53.1458 373.656 53C373.469 52.8542 373.25 52.625 373 52.3125L372.5 51.6562C371.604 51.6979 370.24 51.7812 368.406 51.9062C366.052 52.0729 364.365 52.1771 363.344 52.2188L362.594 54.1875H370.656C371.344 54.1875 371.865 54.3333 372.219 54.625C372.573 54.9167 372.75 55.3021 372.75 55.7812C372.75 56.3229 372.552 56.8646 372.156 57.4062C371.323 58.5938 370.604 59.5312 370 60.2188C369.396 60.9062 368.771 61.5104 368.125 62.0312C369.854 62.9688 371.969 63.6667 374.469 64.125C375.323 64.2708 375.75 64.7188 375.75 65.4688C375.75 65.9271 375.635 66.2604 375.406 66.4688C375.198 66.6979 374.854 66.8125 374.375 66.8125C372.188 66.8125 369.448 65.6979 366.156 63.4688C364.865 64.3646 363.281 65.1562 361.406 65.8438C359.615 66.4896 358.219 66.8125 357.219 66.8125ZM347.25 54.7188C347.25 54.5104 347.312 54.3021 347.438 54.0938C347.583 53.8646 347.802 53.5833 348.094 53.25C350.448 50.7292 352.146 48.5104 353.188 46.5938C353.5 46.0104 353.906 45.7188 354.406 45.7188C355.24 45.7188 355.656 46.0938 355.656 46.8438C355.656 47.2812 354.823 48.625 353.156 50.875V65.5938C353.156 66.5521 352.75 67.0312 351.938 67.0312C351.146 67.0312 350.75 66.5521 350.75 65.5938V53.9375C350.208 54.6042 349.719 55.1146 349.281 55.4688C348.865 55.8229 348.542 56 348.312 56C347.958 56 347.688 55.9062 347.5 55.7188C347.333 55.5104 347.25 55.1771 347.25 54.7188ZM347.344 44.4375C347.344 43.9375 347.667 43.4792 348.312 43.0625C349.979 41.9583 351.552 40.6771 353.031 39.2188C353.469 38.7812 353.865 38.5625 354.219 38.5625C355.073 38.5625 355.5 38.9583 355.5 39.75C355.5 40.375 354.49 41.5208 352.469 43.1875C350.406 44.8958 349.083 45.75 348.5 45.75C347.729 45.75 347.344 45.3125 347.344 44.4375ZM362.656 56.3125C363.615 58.1042 364.781 59.5625 366.156 60.6875C366.99 59.9375 367.708 59.1979 368.312 58.4688C369.083 57.5104 369.469 56.9062 369.469 56.6562C369.469 56.4271 369.323 56.3125 369.031 56.3125H362.656ZM406.25 51.7812C405.708 51.7812 405.031 51.2292 404.219 50.125L403.625 49.375L380.938 50.6562C380.458 50.6771 380.094 50.5729 379.844 50.3438C379.615 50.1146 379.5 49.7708 379.5 49.3125C379.5 48.6667 379.833 48.2604 380.5 48.0938L382.156 48L384.531 47.9688C385.906 45.7812 387.26 43.1875 388.594 40.1875C388.823 39.6458 389.083 39.25 389.375 39C389.688 38.7292 390.042 38.5938 390.438 38.5938C391.333 38.5938 391.781 38.9896 391.781 39.7812C391.781 40.3229 390.979 41.8958 389.375 44.5L387.25 47.875C394.5 47.7083 399.156 47.5521 401.219 47.4062L401.812 47.375C400.333 45.7292 399.229 44.6458 398.5 44.125C397.833 43.6667 397.5 43.2083 397.5 42.75C397.5 42.375 397.594 42.0938 397.781 41.9062C397.969 41.7188 398.271 41.625 398.688 41.625C399.208 41.625 400.844 42.9271 403.594 45.5312C406.302 48.1146 407.656 49.7812 407.656 50.5312C407.656 51.3646 407.188 51.7812 406.25 51.7812ZM382.469 56.75C382.323 54.375 383.448 53.2604 385.844 53.4062H401.188C403.625 53.2604 404.76 54.375 404.594 56.75V62.7812C404.74 65.1562 403.604 66.2812 401.188 66.1562H385.844C384.615 66.1562 383.719 65.8854 383.156 65.3438C382.615 64.8021 382.385 63.9479 382.469 62.7812V56.75ZM385.125 62.0625C385.125 63.1875 385.667 63.75 386.75 63.75H400.25C401.396 63.75 401.969 63.2083 401.969 62.125V57.5C401.969 56.3542 401.417 55.7812 400.312 55.7812H386.812C385.688 55.7812 385.125 56.3333 385.125 57.4375V62.0625Z" fill="#27B096"/>
</svg>
