<svg width="276" height="105" viewBox="0 0 276 105" fill="none" xmlns="http://www.w3.org/2000/svg">
<path d="M103.259 68.8515C103.259 68.2951 103.817 67.6769 104.933 66.9969C106.662 65.9948 108.215 64.7168 109.532 63.2135C109.636 63.0879 109.714 62.9424 109.76 62.7858C109.807 62.6293 109.821 62.4649 109.802 62.3028C109.783 62.1406 109.731 61.984 109.649 61.8425C109.568 61.701 109.459 61.5775 109.328 61.4795L106.722 59.5136C105.687 58.7161 105.169 57.88 105.169 57.0053C105.242 56.0509 105.397 55.1046 105.633 54.177C105.818 53.327 106.177 51.2715 106.709 48.0105L106.755 47.7277C106.781 47.5539 106.769 47.3765 106.72 47.2078C106.671 47.0391 106.585 46.8831 106.47 46.7507C106.354 46.6184 106.211 46.5128 106.051 46.4413C105.89 46.3698 105.716 46.3341 105.54 46.3368H104.84C103.778 46.3646 103.245 45.8314 103.245 44.7465C103.245 43.7357 103.871 43.2071 105.1 43.1515H106.361C106.659 43.1512 106.946 43.0415 107.168 42.8431C107.391 42.6448 107.532 42.3718 107.566 42.0758L108.123 36.9433C108.146 36.475 108.343 36.0322 108.674 35.7007C108.989 35.414 109.404 35.264 109.829 35.2834C110.864 35.2834 111.382 35.8274 111.382 36.9155L110.812 41.6864C110.791 41.8577 110.806 42.0315 110.858 42.1963C110.909 42.361 110.996 42.5128 111.111 42.6415C111.226 42.7701 111.367 42.8727 111.525 42.9423C111.683 43.0119 111.854 43.0468 112.027 43.0449H114.266C116.334 43.0171 117.368 44.0386 117.368 46.1096C117.272 48.8157 117.008 51.5133 116.575 54.1863C116.257 56.4932 115.608 58.742 114.646 60.8628C114.539 61.0942 114.508 61.3537 114.558 61.6038C114.608 61.8538 114.736 62.0815 114.924 62.2538C117.005 64.2042 118.045 65.5673 118.045 66.3431C118.045 67.5115 117.474 68.0957 116.334 68.0957C115.805 68.0957 114.917 67.3122 113.668 65.745L113.543 65.5967C113.43 65.4605 113.288 65.3509 113.128 65.2757C112.967 65.2004 112.792 65.1614 112.615 65.1614C112.438 65.1614 112.264 65.2004 112.103 65.2757C111.943 65.3509 111.801 65.4605 111.688 65.5967C110.708 66.8171 109.592 67.923 108.364 68.8932C106.818 70.0616 105.638 70.6458 104.822 70.6458C103.783 70.618 103.262 70.0198 103.259 68.8515ZM113.923 50.8202L114.28 47.1991C114.359 46.5083 113.937 46.1652 113.01 46.1652L111.155 46.2162C110.873 46.2226 110.603 46.3279 110.391 46.5135C110.179 46.6991 110.039 46.9533 109.996 47.2316C109.687 49.1975 109.314 51.2066 108.878 53.259C108.651 54.2175 108.478 55.1881 108.359 56.1661C108.359 56.7503 108.929 57.4365 110.07 58.2339L110.594 58.6049C110.748 58.7157 110.925 58.789 111.112 58.8188C111.299 58.8485 111.491 58.8339 111.671 58.7762C111.851 58.7185 112.016 58.6192 112.151 58.4864C112.286 58.3535 112.388 58.1908 112.449 58.0114C113.197 55.6741 113.693 53.2633 113.928 50.8202H113.923ZM120.878 69.4913C120.878 68.3724 121.581 67.8144 122.987 67.8175H125.259C126.344 67.8175 126.914 67.2333 126.97 66.0649V56.2078C126.97 56.0491 126.939 55.892 126.878 55.7454C126.817 55.5989 126.728 55.4658 126.615 55.3538C126.503 55.2418 126.369 55.1531 126.223 55.0928C126.076 55.0324 125.919 55.0017 125.76 55.0023H119.542C118.269 55.0023 117.631 54.4846 117.627 53.4491C117.624 52.4136 118.263 51.8959 119.542 51.8959H125.774C126.095 51.8959 126.402 51.7684 126.629 51.5415C126.856 51.3145 126.984 51.0067 126.984 50.6858V47.7184C126.94 47.0362 127.137 46.3602 127.54 45.8082C127.939 45.326 129.021 44.476 130.786 43.2582C132.617 42.0109 133.531 41.2042 133.531 40.8286C133.533 40.7671 133.519 40.7061 133.492 40.6511C133.464 40.596 133.423 40.5487 133.373 40.5134C133.27 40.4355 133.145 40.3931 133.016 40.3928H120.136C118.865 40.3928 118.226 39.9013 118.226 38.9184C118.208 38.7005 118.241 38.4815 118.321 38.2781C118.402 38.0748 118.528 37.8926 118.689 37.7454C119.116 37.4583 119.628 37.3243 120.14 37.3652H135.469C137.615 37.3652 138.691 38.0189 138.691 39.3172C138.691 40.4083 136.462 42.5318 132.005 45.6877C130.86 46.5361 130.266 47.3707 130.211 48.196V50.6858C130.211 51.0067 130.338 51.3145 130.565 51.5415C130.792 51.7684 131.1 51.8959 131.421 51.8959H137.611C138.909 51.8959 139.563 52.4152 139.563 53.4491C139.563 54.483 138.909 55.0023 137.611 55.0023H131.416C131.258 55.0017 131.1 55.0324 130.954 55.0928C130.807 55.1531 130.673 55.2418 130.561 55.3538C130.449 55.4658 130.359 55.5989 130.298 55.7454C130.238 55.892 130.206 56.0491 130.206 56.2078V66.9041C130.206 68.4156 129.835 69.4897 129.093 70.1265C128.189 70.8702 127.041 71.2533 125.871 71.2022H123.001C121.598 71.2022 120.895 70.6319 120.892 69.4913H120.878Z" fill="#27B096"/>
<path d="M180.28 68.0958C180.28 69.0787 179.672 69.5702 178.448 69.5702H145.993C144.797 69.5702 144.199 69.0787 144.199 68.0958C144.199 67.1128 144.797 66.626 145.993 66.626H159.11C159.431 66.626 159.738 66.4985 159.965 66.2716C160.192 66.0446 160.32 65.7368 160.32 65.4159V62.8195C160.32 62.4985 160.192 62.1907 159.965 61.9638C159.738 61.7368 159.431 61.6093 159.11 61.6093H148.26C147.092 61.6093 146.508 61.1179 146.508 60.1349C146.493 59.9359 146.523 59.7361 146.595 59.5501C146.667 59.364 146.78 59.1964 146.925 59.0593C147.315 58.7889 147.787 58.6627 148.26 58.7023H159.11C159.431 58.7023 159.738 58.5748 159.965 58.3478C160.192 58.1209 160.32 57.8131 160.32 57.4922V55.9714C160.32 55.6505 160.192 55.3427 159.965 55.1157C159.738 54.8888 159.431 54.7613 159.11 54.7613H150.708C148.05 54.7613 146.803 53.4476 146.967 50.8203V40.8287C146.967 39.4377 147.268 38.4409 147.894 37.8057C148.52 37.1705 149.484 36.8784 150.838 36.8784H173.728C175.119 36.8784 176.116 37.2076 176.751 37.8567C177.387 38.5058 177.679 39.4934 177.591 40.8194V50.811C177.591 52.1649 177.294 53.1617 176.714 53.7969C176.135 54.4321 175.184 54.752 173.886 54.752H164.655C164.334 54.752 164.026 54.8795 163.799 55.1064C163.572 55.3334 163.445 55.6412 163.445 55.9621V57.4922C163.445 57.8131 163.572 58.1209 163.799 58.3478C164.026 58.5748 164.334 58.7023 164.655 58.7023H176.223C177.385 58.7023 177.968 59.1937 177.971 60.1767C177.985 60.3757 177.956 60.5755 177.883 60.7615C177.811 60.9476 177.699 61.1152 177.554 61.2523C177.165 61.522 176.694 61.6482 176.223 61.6093H164.655C164.334 61.6093 164.026 61.7368 163.799 61.9638C163.572 62.1907 163.445 62.4985 163.445 62.8195V65.4159C163.445 65.7368 163.572 66.0446 163.799 66.2716C164.026 66.4985 164.334 66.626 164.655 66.626H178.448C179.672 66.626 180.28 67.1128 180.28 68.0958ZM151.237 44.3339H159.119C159.279 44.3351 159.438 44.3045 159.586 44.244C159.734 44.1834 159.869 44.0941 159.982 43.9811C160.096 43.8681 160.186 43.7337 160.247 43.5858C160.308 43.4378 160.339 43.2792 160.338 43.1191V41.0049C160.338 40.846 160.307 40.6886 160.246 40.5418C160.185 40.395 160.096 40.2616 159.984 40.1492C159.871 40.0368 159.738 39.9477 159.591 39.8869C159.444 39.8261 159.287 39.7948 159.128 39.7948H153.003C152.218 39.796 151.466 40.1087 150.911 40.6641C150.357 41.2196 150.045 41.9725 150.045 42.7575V43.1191C150.043 43.438 150.167 43.7449 150.39 43.9726C150.614 44.2003 150.918 44.3302 151.237 44.3339ZM160.338 50.6858V48.4464C160.338 48.2877 160.307 48.1306 160.246 47.984C160.185 47.8375 160.096 47.7044 159.984 47.5924C159.871 47.4804 159.738 47.3917 159.591 47.3314C159.444 47.271 159.287 47.2403 159.128 47.2409H151.246C151.088 47.2403 150.931 47.2711 150.784 47.3314C150.638 47.3918 150.504 47.4806 150.392 47.5926C150.28 47.7047 150.192 47.8378 150.131 47.9844C150.071 48.1309 150.04 48.2879 150.041 48.4464V50.1063C150.041 51.2978 150.62 51.8959 151.789 51.8959H159.137C159.457 51.8935 159.762 51.7649 159.987 51.5382C160.212 51.3116 160.338 51.0052 160.338 50.6858ZM164.655 44.3339H173.26C173.419 44.3339 173.577 44.3024 173.724 44.2413C173.871 44.1802 174.005 44.0906 174.117 43.9778C174.23 43.8649 174.319 43.731 174.379 43.5836C174.44 43.4363 174.471 43.2784 174.47 43.1191V42.7528C174.47 41.9671 174.158 41.2135 173.603 40.6579C173.047 40.1023 172.293 39.7901 171.508 39.7901H164.655C164.334 39.7901 164.026 39.9176 163.799 40.1446C163.572 40.3715 163.445 40.6793 163.445 41.0002V43.1191C163.444 43.2784 163.475 43.4363 163.536 43.5836C163.596 43.731 163.685 43.8649 163.798 43.9778C163.91 44.0906 164.044 44.1802 164.191 44.2413C164.338 44.3024 164.496 44.3339 164.655 44.3339ZM163.445 50.6858C163.445 51.0068 163.572 51.3146 163.799 51.5415C164.026 51.7684 164.334 51.8959 164.655 51.8959H172.718C173.886 51.8959 174.47 51.2994 174.47 50.1063V48.4464C174.47 48.2877 174.439 48.1306 174.378 47.984C174.317 47.8375 174.228 47.7044 174.116 47.5924C174.003 47.4804 173.87 47.3917 173.723 47.3314C173.576 47.271 173.419 47.2403 173.26 47.2409H164.655C164.496 47.2403 164.339 47.271 164.192 47.3314C164.045 47.3917 163.912 47.4804 163.799 47.5924C163.687 47.7044 163.598 47.8375 163.537 47.984C163.476 48.1306 163.445 48.2877 163.445 48.4464V50.6858Z" fill="#27B096"/>
<path d="M185.538 45.609V42.9013C185.538 41.4393 185.869 40.3915 186.53 39.7578C187.3 39.0392 188.385 38.71 189.776 38.761H199.693C200.013 38.761 200.319 38.634 200.545 38.4079C200.771 38.1818 200.898 37.8752 200.898 37.5555V36.8508C200.898 35.7102 201.509 35.1399 202.73 35.1399C203.951 35.1399 204.561 35.7102 204.561 36.8508V37.5555C204.561 37.8764 204.689 38.1842 204.916 38.4112C205.143 38.6381 205.45 38.7656 205.771 38.7656H216.227C217.63 38.7656 218.704 39.0979 219.449 39.7625C220.114 40.3466 220.446 41.3543 220.446 42.7854V45.6137C220.446 47.0046 219.871 47.6815 218.73 47.6815C217.59 47.6815 217.02 46.9907 217.02 45.6137V43.2166C217.02 42.1595 216.505 41.6402 215.466 41.668H190.471C189.436 41.668 188.932 42.1842 188.96 43.2166V45.609C188.96 46.9845 188.389 47.6738 187.249 47.6769C186.108 47.68 185.538 46.9907 185.538 45.609ZM221.002 66.9832C220.992 67.1875 220.952 67.3891 220.882 67.5813C220.793 67.9278 220.59 68.2346 220.307 68.4529C220.026 68.666 219.681 68.7787 219.328 68.7728C219.01 68.7651 218.695 68.6974 218.401 68.5735C216.698 67.857 215.103 66.9067 213.663 65.7499C212.469 64.8182 211.369 63.7715 210.38 62.6249L210.352 62.5924C210.19 62.4009 209.973 62.2643 209.73 62.2012C209.488 62.1381 209.231 62.1517 208.997 62.2401C208.762 62.3285 208.56 62.4873 208.42 62.6949C208.279 62.9024 208.206 63.1484 208.21 63.3992V63.478C208.21 66.3433 207.652 68.4143 206.536 69.6909C205.609 70.7758 203.699 71.3198 200.806 71.3229C200.435 71.3229 199.772 71.2951 198.817 71.2394C197.704 71.1606 197.143 70.6552 197.143 69.7279C197.117 69.479 197.149 69.2275 197.236 68.9928C197.323 68.7581 197.462 68.5465 197.644 68.3741C198.11 68.077 198.671 67.9646 199.215 68.0588C199.531 68.082 199.957 68.0959 200.486 68.0959C202.504 68.0959 203.765 67.725 204.269 66.9832C204.773 66.2413 205.013 64.9539 204.988 63.121V63.0283C204.985 62.801 204.919 62.5791 204.796 62.388C204.673 62.1968 204.499 62.0441 204.293 61.9473C204.087 61.8506 203.859 61.8137 203.633 61.8408C203.408 61.868 203.194 61.9582 203.017 62.101C200.497 64.1356 197.683 65.7769 194.672 66.9693C193.096 67.6211 191.488 68.1921 189.854 68.6801C188.901 68.9983 187.912 69.1992 186.91 69.2782C185.983 69.2782 185.519 68.8517 185.519 68.0032C185.493 67.6558 185.592 67.3105 185.798 67.0295C186.09 66.7439 186.465 66.556 186.869 66.4917C190.161 65.6738 193.347 64.4774 196.364 62.9263C198.957 61.6059 201.381 59.9776 203.583 58.0765C203.769 57.9128 203.899 57.6959 203.957 57.4554C204.015 57.2148 203.998 56.9623 203.908 56.7319L203.815 56.5001C203.74 56.3367 203.63 56.1921 203.493 56.0768C203.355 55.9616 203.193 55.8787 203.019 55.8342C202.846 55.7897 202.664 55.7848 202.488 55.8198C202.312 55.8548 202.146 55.9288 202.002 56.0365C201.1 56.6953 200.16 57.3006 199.188 57.8493C197.757 58.6822 196.261 59.3955 194.713 59.9821C193.153 60.6079 191.557 61.1389 189.933 61.5724C189 61.849 188.039 62.0231 187.068 62.0917C186.219 62.0917 185.798 61.628 185.798 60.7378C185.788 60.5463 185.828 60.3555 185.915 60.1846C186.002 60.0138 186.133 59.8688 186.294 59.7642C186.91 59.4302 187.575 59.194 188.264 59.0641C190.858 58.4088 193.383 57.51 195.808 56.3796C197.451 55.6138 199.024 54.7063 200.509 53.6672C200.655 53.5651 200.776 53.432 200.864 53.2775C200.952 53.1231 201.004 52.9511 201.018 52.7738C201.032 52.5966 201.006 52.4185 200.943 52.2523C200.88 52.0861 200.781 51.936 200.653 51.8126L200.528 51.6875C200.342 51.5037 200.103 51.385 199.844 51.349C199.586 51.3131 199.323 51.3619 199.095 51.4881C196.993 52.6049 194.809 53.5612 192.562 54.3488C190.361 55.1463 188.782 55.545 187.824 55.545C186.865 55.545 186.388 55.0674 186.391 54.1123C186.382 53.9534 186.407 53.7943 186.466 53.6462C186.524 53.4981 186.614 53.3645 186.729 53.2546C187.029 53.02 187.375 52.851 187.745 52.7585C190.004 52.1979 192.225 51.4933 194.394 50.6489C194.922 50.4418 195.451 50.2192 195.979 49.9812C196.234 49.8696 196.442 49.6738 196.569 49.4267C196.696 49.1796 196.734 48.8963 196.677 48.6244C196.62 48.3525 196.471 48.1085 196.255 47.9334C196.04 47.7584 195.77 47.6629 195.492 47.663H191.686C190.595 47.663 190.051 47.1854 190.054 46.2303C190.057 45.2752 190.601 44.7977 191.686 44.7977H214.214C215.333 44.7977 215.891 45.2752 215.888 46.2303C215.885 47.1854 215.327 47.663 214.214 47.663H205.396C205.136 47.6627 204.884 47.7473 204.677 47.9041C204.297 48.1823 203.88 48.4836 203.43 48.7989C203.282 48.8977 203.157 49.0282 203.065 49.181C202.973 49.3337 202.916 49.505 202.899 49.6824C202.881 49.8597 202.903 50.0388 202.963 50.2068C203.022 50.3747 203.119 50.5273 203.245 50.6535C204.39 51.8007 205.375 53.0966 206.175 54.5064C206.254 54.6452 206.36 54.7669 206.487 54.8643C206.613 54.9617 206.758 55.033 206.913 55.074C207.067 55.115 207.228 55.1249 207.386 55.103C207.545 55.0812 207.697 55.0281 207.835 54.9469C210.144 53.5258 212.336 51.9227 214.391 50.1528C214.752 49.7917 215.234 49.5784 215.744 49.5547C215.962 49.5592 216.176 49.6075 216.375 49.6967C216.573 49.786 216.751 49.9143 216.899 50.074C217.025 50.193 217.125 50.3368 217.193 50.4964C217.261 50.656 217.295 50.8279 217.293 51.0013C217.27 51.2924 217.183 51.575 217.039 51.8289C216.895 52.0829 216.697 52.3021 216.459 52.471C214.558 54.0519 212.474 55.397 210.25 56.4769C210.089 56.5541 209.946 56.6666 209.834 56.8062C209.721 56.9457 209.642 57.1088 209.601 57.2833C209.56 57.4578 209.559 57.6392 209.597 57.8142C209.636 57.9892 209.713 58.1534 209.824 58.2944C212.133 61.1876 215.378 63.5321 219.56 65.3279C220.522 65.7421 221.002 66.2939 221.002 66.9832Z" fill="#27B096"/>
<path d="M235.473 51.604C235.356 51.7936 235.293 52.0117 235.292 52.2345V69.3292C235.338 69.864 235.197 70.3982 234.893 70.8407C234.736 71.006 234.543 71.1336 234.33 71.2139C234.116 71.2942 233.887 71.3251 233.66 71.3043C233.438 71.3228 233.216 71.2907 233.008 71.2104C232.801 71.13 232.615 71.0036 232.464 70.8407C232.16 70.3982 232.019 69.864 232.065 69.3292V59.8615C232.064 59.6176 231.99 59.3796 231.852 59.1787C231.713 58.9778 231.518 58.8234 231.29 58.7356C231.063 58.6479 230.814 58.631 230.576 58.6871C230.339 58.7432 230.124 58.8698 229.96 59.0501C228.643 60.4921 227.711 61.2107 227.178 61.2107C226.961 61.2277 226.742 61.1994 226.536 61.1275C226.33 61.0557 226.142 60.9419 225.982 60.7934C225.688 60.4294 225.545 59.9663 225.583 59.4999C225.586 59.2517 225.662 59.0098 225.801 58.8044C226.006 58.509 226.24 58.2356 226.501 57.9884C228.58 55.983 230.444 53.7672 232.065 51.3768C233.063 49.8313 233.878 48.4821 234.508 47.3291L234.559 47.2271L235.487 45.0712C235.568 44.8876 235.602 44.6867 235.585 44.4867C235.569 44.2868 235.503 44.094 235.394 43.9259C235.284 43.7578 235.134 43.6198 234.958 43.5242C234.781 43.4287 234.584 43.3787 234.383 43.3789H227.892C226.594 43.3789 225.94 42.8457 225.94 41.7839C225.94 40.7222 226.594 40.1936 227.892 40.1936H236.46C236.726 40.1936 236.985 40.106 237.196 39.9442C237.407 39.7825 237.559 39.5556 237.629 39.2988L238.315 36.7719C238.606 35.6313 239.204 35.061 240.109 35.061C241.25 35.061 241.82 35.5386 241.82 36.4937C241.82 36.945 241.502 38.0454 240.865 39.7949L240.744 40.1936H259.689C261.02 40.1936 261.683 40.7268 261.683 41.7839C261.683 42.841 261.02 43.3789 259.689 43.3789H240.378C240.133 43.3758 239.893 43.4479 239.689 43.5855C239.486 43.7231 239.33 43.9196 239.242 44.1485C238.206 46.7388 236.944 49.2334 235.473 51.604ZM261.901 68.4946C261.901 69.5301 261.264 70.0478 259.99 70.0478H238.779C237.561 70.0478 236.95 69.5301 236.947 68.4946C236.944 67.4591 237.555 66.9414 238.779 66.9414H247.004C247.325 66.9414 247.632 66.8139 247.859 66.587C248.086 66.36 248.214 66.0522 248.214 65.7313V58.0394C248.214 57.8807 248.182 57.7235 248.122 57.577C248.061 57.4304 247.972 57.2973 247.859 57.1853C247.747 57.0733 247.613 56.9846 247.466 56.9243C247.32 56.864 247.162 56.8333 247.004 56.8339H240.786C239.513 56.8339 238.876 56.3162 238.876 55.2807C238.876 54.2699 239.511 53.7692 240.786 53.7692H247.018C247.339 53.7692 247.646 53.6417 247.873 53.4148C248.1 53.1878 248.228 52.88 248.228 52.5591V47.459C248.228 46.1576 248.772 45.507 249.86 45.507C250.948 45.507 251.492 46.1576 251.492 47.459V52.5591C251.49 52.718 251.519 52.8757 251.579 53.0232C251.638 53.1708 251.725 53.3052 251.836 53.4188C251.947 53.5325 252.08 53.6232 252.226 53.6857C252.372 53.7482 252.529 53.7813 252.688 53.7831H258.442C259.745 53.7831 260.394 54.2838 260.394 55.2946C260.394 56.3053 259.745 56.8478 258.442 56.8478H252.688C252.529 56.8472 252.372 56.8779 252.225 56.9382C252.078 56.9985 251.945 57.0872 251.833 57.1992C251.72 57.3112 251.631 57.4443 251.57 57.5909C251.509 57.7375 251.478 57.8946 251.478 58.0533V65.7452C251.478 66.0661 251.605 66.3739 251.832 66.6009C252.059 66.8278 252.367 66.9553 252.688 66.9553H259.995C261.281 66.946 261.922 67.4591 261.919 68.4946H261.901Z" fill="#27B096"/>
<path d="M75.8574 35.2742L93.8423 53.2544" stroke="#27B096" stroke-width="2.31824" stroke-miterlimit="10" stroke-linecap="round"/>
<path d="M14.0762 53.2545L52.7675 14.5631C52.9235 14.4065 53.1088 14.2823 53.3129 14.1975C53.517 14.1127 53.7358 14.0691 53.9568 14.0691C54.1778 14.0691 54.3966 14.1127 54.6007 14.1975C54.8048 14.2823 54.9901 14.4065 55.1461 14.5631L68.3507 27.7632" stroke="#27B096" stroke-width="2.31824" stroke-miterlimit="10" stroke-linecap="round"/>
<path d="M17.8643 57.7426V84.1287C17.8643 84.5751 18.0416 85.0032 18.3572 85.3188C18.6728 85.6344 19.1009 85.8118 19.5473 85.8118H87.9816C88.4276 85.8105 88.855 85.6328 89.1704 85.3175C89.4858 85.0021 89.6635 84.5747 89.6647 84.1287V59.8754C89.663 59.4296 89.4846 59.0028 89.1686 58.6884L53.6022 23.1174" stroke="#27B096" stroke-width="2.31824" stroke-miterlimit="10" stroke-linecap="round"/>
<path d="M68.3511 27.7631V17.3682C68.3504 17.147 68.3935 16.9278 68.4779 16.7233C68.5622 16.5188 68.6861 16.333 68.8425 16.1766C70.8687 13.3391 75.7092 14.0577 75.7092 19.0234V34.9728" stroke="#27B096" stroke-width="2.31824" stroke-miterlimit="10" stroke-linecap="round"/>
<path d="M34.2681 54.0938H30.7258C29.0281 54.0938 27.6519 55.47 27.6519 57.1677V60.71C27.6519 62.4077 29.0281 63.784 30.7258 63.784H34.2681C35.9658 63.784 37.3421 62.4077 37.3421 60.71V57.1677C37.3421 55.47 35.9658 54.0938 34.2681 54.0938Z" fill="#27B096"/>
<path d="M48.3492 54.0938H44.8069C43.1092 54.0938 41.7329 55.47 41.7329 57.1677V60.71C41.7329 62.4077 43.1092 63.784 44.8069 63.784H48.3492C50.0469 63.784 51.4231 62.4077 51.4231 60.71V57.1677C51.4231 55.47 50.0469 54.0938 48.3492 54.0938Z" fill="#27B096"/>
<path d="M34.2681 66.9136H30.7258C29.0281 66.9136 27.6519 68.2898 27.6519 69.9875V73.5298C27.6519 75.2275 29.0281 76.6038 30.7258 76.6038H34.2681C35.9658 76.6038 37.3421 75.2275 37.3421 73.5298V69.9875C37.3421 68.2898 35.9658 66.9136 34.2681 66.9136Z" fill="#27B096"/>
<path d="M48.3492 66.9136H44.8069C43.1092 66.9136 41.7329 68.2898 41.7329 69.9875V73.5298C41.7329 75.2275 43.1092 76.6038 44.8069 76.6038H48.3492C50.0469 76.6038 51.4231 75.2275 51.4231 73.5298V69.9875C51.4231 68.2898 50.0469 66.9136 48.3492 66.9136Z" fill="#27B096"/>
<path d="M28.3105 80.6885H51.4234" stroke="#27B096" stroke-width="2.31824" stroke-miterlimit="10" stroke-linecap="round"/>
</svg>
