<svg width="12" height="12" viewBox="0 0 12 12" fill="none" xmlns="http://www.w3.org/2000/svg">
<path fill-rule="evenodd" clip-rule="evenodd" d="M10.3902 1.60822C10.4251 1.64305 10.4528 1.68443 10.4717 1.72999C10.4906 1.77555 10.5004 1.82439 10.5004 1.87372C10.5004 1.92304 10.4906 1.97188 10.4717 2.01744C10.4528 2.063 10.4251 2.10438 10.3902 2.13922L2.14019 10.3892C2.06978 10.4596 1.97428 10.4992 1.87469 10.4992C1.77511 10.4992 1.67961 10.4596 1.60919 10.3892C1.53878 10.3188 1.49922 10.2233 1.49922 10.1237C1.49922 10.0241 1.53878 9.92863 1.60919 9.85822L9.85919 1.60822C9.89403 1.57329 9.93541 1.54559 9.98097 1.52668C10.0265 1.50778 10.0754 1.49805 10.1247 1.49805C10.174 1.49805 10.2229 1.50778 10.2684 1.52668C10.314 1.54559 10.3554 1.57329 10.3902 1.60822Z" fill="#808080"/>
<path fill-rule="evenodd" clip-rule="evenodd" d="M1.60919 1.60822C1.57427 1.64305 1.54656 1.68443 1.52766 1.72999C1.50875 1.77555 1.49902 1.82439 1.49902 1.87372C1.49902 1.92304 1.50875 1.97188 1.52766 2.01744C1.54656 2.063 1.57427 2.10438 1.60919 2.13922L9.85919 10.3892C9.92961 10.4596 10.0251 10.4992 10.1247 10.4992C10.2243 10.4992 10.3198 10.4596 10.3902 10.3892C10.4606 10.3188 10.5002 10.2233 10.5002 10.1237C10.5002 10.0241 10.4606 9.92863 10.3902 9.85822L2.14019 1.60822C2.10536 1.57329 2.06398 1.54559 2.01842 1.52668C1.97286 1.50778 1.92402 1.49805 1.87469 1.49805C1.82537 1.49805 1.77653 1.50778 1.73097 1.52668C1.68541 1.54559 1.64403 1.57329 1.60919 1.60822Z" fill="#808080"/>
</svg>
