<svg width="12" height="12" viewBox="0 0 12 12" fill="none" xmlns="http://www.w3.org/2000/svg">
<path d="M4.5 3.375C4.5 3.67337 4.38147 3.95952 4.1705 4.1705C3.95952 4.38147 3.67337 4.5 3.375 4.5C3.07663 4.5 2.79048 4.38147 2.57951 4.1705C2.36853 3.95952 2.25 3.67337 2.25 3.375C2.25 3.07663 2.36853 2.79048 2.57951 2.57951C2.79048 2.36853 3.07663 2.25 3.375 2.25C3.67337 2.25 3.95952 2.36853 4.1705 2.57951C4.38147 2.79048 4.5 3.07663 4.5 3.375ZM3.75 3.375C3.75 3.27554 3.71049 3.18016 3.64017 3.10984C3.56984 3.03951 3.47446 3 3.375 3C3.27554 3 3.18016 3.03951 3.10984 3.10984C3.03951 3.18016 3 3.27554 3 3.375C3 3.47446 3.03951 3.56984 3.10984 3.64017C3.18016 3.71049 3.27554 3.75 3.375 3.75C3.47446 3.75 3.56984 3.71049 3.64017 3.64017C3.71049 3.56984 3.75 3.47446 3.75 3.375Z" fill="#2E3646"/>
<path d="M1.5 0.75H4.9395C5.1384 0.750042 5.32913 0.829088 5.46975 0.96975L10.7198 6.21975C10.8604 6.3604 10.9393 6.55113 10.9393 6.75C10.9393 6.94887 10.8604 7.1396 10.7198 7.28025L7.28025 10.7198C7.1396 10.8604 6.94887 10.9393 6.75 10.9393C6.55113 10.9393 6.3604 10.8604 6.21975 10.7198L0.96975 5.46975C0.829088 5.32913 0.750042 5.1384 0.75 4.9395V1.5C0.75 1.30109 0.829018 1.11032 0.96967 0.96967C1.11032 0.829018 1.30109 0.75 1.5 0.75ZM1.5 4.9395L6.75 10.1895L10.1895 6.75L4.9395 1.5H1.5V4.9395Z" fill="#2E3646"/>
</svg>
